# xmcd CD database file
#
# Track frame offsets:
#	150
#	21589
#	42323
#	64770
#	82952
#	110124
#	128691
#	161516
#	180069
#	197459
#	237772
#
# Disc length: 3445 seconds
#
# Revision: 1
# Processed by: cddbd v1.5.2PL0 Copyright (c) Steve Scherf et al.
# Submitted via: CDex 1.70beta2
#
DISCID=850d730b
DTITLE=BB King - Blues Summit
DYEAR=1900
DGENRE=Blues
TTITLE0=Playing with my friends
TTITLE1=Since I met you baby
TTITLE2=I pity the fool
TTITLE3=You shook me
TTITLE4=Something you got
TTITLE5=There's something on your mind
TTITLE6=Little by little
TTITLE7=Call it stormy Monday
TTITLE8=You're the boss
TTITLE9=We're gonna make it
TTITLE10=I'm gonna move out of this neighborhood
EXTD=
EXTT0=
EXTT1=
EXTT2=
EXTT3=
EXTT4=
EXTT5=
EXTT6=
EXTT7=
EXTT8=
EXTT9=
EXTT10=
PLAYORDER=
